<?xml version="1.0" encoding="utf-8"?>
<!-- Generator: Adobe Illustrator 16.0.0, SVG Export Plug-In . SVG Version: 6.00 Build 0)  -->
<!DOCTYPE svg PUBLIC "-//W3C//DTD SVG 1.1//EN" "http://www.w3.org/Graphics/SVG/1.1/DTD/svg11.dtd">
<svg version="1.1" id="Layer_1" xmlns="http://www.w3.org/2000/svg" xmlns:xlink="http://www.w3.org/1999/xlink" x="0px" y="0px"
	 width="1000px" height="1000px" viewBox="0 0 1000 1000" enable-background="new 0 0 1000 1000" xml:space="preserve">
<line fill="none" x1="379.801" y1="518.806" x2="379.801" y2="506.575"/>
<path fill="#C9B589" d="M501.571,360.426c-68.76,0-124.5,55.74-124.5,124.5c0,68.759,55.74,124.5,124.5,124.5
	s124.5-55.74,124.5-124.5C626.071,416.167,570.331,360.426,501.571,360.426z M400.241,484.926c0-55.96,45.37-101.33,101.33-101.33
	v19.68c-45.09,0-81.65,36.56-81.65,81.65c0,45.089,36.561,81.65,81.65,81.65v19.68C445.611,586.256,400.241,540.887,400.241,484.926
	z"/>
<g>
	<text transform="matrix(1 0 0 1 324.0664 685.458)" fill="#FFFFFF" font-family="'Montserrat-Regular'" font-size="69.8844">CLOTHIFY</text>
</g>
<g>
	
		<text transform="matrix(1 0 0 1 367.1748 719.3379)" fill="#FFFFFF" font-family="'Roboto-Bold'" font-size="14.3965" letter-spacing="2">STEP BY STEP WITH FASHION</text>
</g>
</svg>
