<?xml version="1.0" encoding="utf-8"?>
<!-- Generator: Adobe Illustrator 16.0.0, SVG Export Plug-In . SVG Version: 6.00 Build 0)  -->
<!DOCTYPE svg PUBLIC "-//W3C//DTD SVG 1.1//EN" "http://www.w3.org/Graphics/SVG/1.1/DTD/svg11.dtd">
<svg version="1.1" id="Layer_1" xmlns="http://www.w3.org/2000/svg" xmlns:xlink="http://www.w3.org/1999/xlink" x="0px" y="0px"
	 width="50px" height="50px" viewBox="0 0 1000 1000" enable-background="new 0 0 1000 1000" xml:space="preserve">
<g>
	<path fill="none" d="M436.627,418.35v-19.68c-55.96,0-101.329,45.369-101.329,101.33c0,55.96,45.369,101.329,101.329,101.329
		v-19.68c-45.09,0-81.649-36.56-81.649-81.649C354.978,454.909,391.537,418.35,436.627,418.35z"/>
	<path fill="#1C1B1A" d="M436.627,375.5c-68.76,0-124.5,55.739-124.5,124.5c0,68.76,55.74,124.5,124.5,124.5
		c68.761,0,124.5-55.74,124.5-124.5C561.127,431.239,505.388,375.5,436.627,375.5z M436.627,581.649v19.68
		c-55.96,0-101.329-45.369-101.329-101.329c0-55.961,45.369-101.33,101.329-101.33v19.68c-45.09,0-81.649,36.56-81.649,81.65
		C354.978,545.09,391.537,581.649,436.627,581.649z"/>
</g>
<g>
	<text transform="matrix(1 0 0 1 408.1226 527.5391)" fill="#FFFFFF" font-family="'Montserrat-Regular'" font-size="69.8844">CLOTHIFY</text>
</g>
</svg>
