<?xml version="1.0" encoding="utf-8"?>
<!-- Generator: Adobe Illustrator 16.0.0, SVG Export Plug-In . SVG Version: 6.00 Build 0)  -->
<!DOCTYPE svg PUBLIC "-//W3C//DTD SVG 1.1//EN" "http://www.w3.org/Graphics/SVG/1.1/DTD/svg11.dtd">
<svg version="1.1" id="Layer_1" xmlns="http://www.w3.org/2000/svg" xmlns:xlink="http://www.w3.org/1999/xlink" x="0px" y="0px"
	 width="1000px" height="1000px" viewBox="0 0 1000 1000" enable-background="new 0 0 1000 1000" xml:space="preserve">
<path fill="#1C1B1A" d="M691.991,361.159c-68.76,0-124.5,55.74-124.5,124.5c0,68.771,55.74,124.509,124.5,124.509
	s124.5-55.738,124.5-124.509C816.491,416.899,760.75,361.159,691.991,361.159z M691.991,404.009c-45.09,0-81.65,36.56-81.65,81.65
	c0,45.099,36.56,81.66,81.65,81.66v19.68c-55.96,0-101.33-45.369-101.33-101.339c0-55.96,45.37-101.33,101.33-101.33V404.009z"/>
<path fill="#1C1B1A" d="M191.19,484.919c0,45.1,36.56,81.661,81.65,81.661v19.68c-55.96,0-101.33-45.371-101.33-101.34
	c0-55.96,45.37-101.33,101.33-101.33v19.68C227.75,403.269,191.19,439.83,191.19,484.919z"/>
<circle fill="none" stroke="#1C1B1A" stroke-width="10" stroke-miterlimit="10" cx="273.844" cy="484.924" r="125.244"/>
</svg>
