<svg id="Layer_1" data-name="Layer 1" xmlns="http://www.w3.org/2000/svg" viewBox="0 0 1695.57 1355.49"><defs><style>.cls-1{fill:#1c252a;}.cls-2{fill:#84bacd;}.cls-3,.cls-6{isolation:isolate;fill:#f2f2f0;}.cls-3{font-size:69.88px;font-family:Montserrat-Regular, Montserrat;}.cls-4{letter-spacing:-0.01em;}.cls-5{letter-spacing:-0.01em;}.cls-6{font-size:14.4px;font-family:Roboto-Bold, Roboto;font-weight:700;letter-spacing:0.14em;}.cls-7{letter-spacing:0.11em;}.cls-8{letter-spacing:0.12em;}.cls-9{letter-spacing:0.04em;}.cls-10{letter-spacing:0.14em;}</style></defs><title>Artboard 1</title><rect class="cls-1" x="-0.09" y="0.98" width="1695.57" height="1355.49"/><path class="cls-2" d="M847.7,497.31a124.5,124.5,0,1,0,124.5,124.5A124.5,124.5,0,0,0,847.7,497.31ZM746.37,621.81A101.33,101.33,0,0,1,847.7,520.48v19.68a81.65,81.65,0,0,0,0,163.3v19.68A101.33,101.33,0,0,1,746.37,621.81Z"/><text class="cls-3" transform="translate(670.2 822.35)">C<tspan class="cls-4" x="50.25" y="0">L</tspan><tspan class="cls-5" x="90.43" y="0">O</tspan><tspan x="148.36" y="0">THIFY</tspan></text><text class="cls-6" transform="translate(713.3 856.23)">STEP <tspan class="cls-7" x="48.66" y="0">B</tspan><tspan x="59.45" y="0">Y STEP W</tspan><tspan class="cls-8" x="139.14" y="0">I</tspan><tspan x="145.12" y="0">TH </tspan><tspan class="cls-9" x="173.74" y="0">F</tspan><tspan class="cls-10" x="182.27" y="0">ASHION</tspan></text></svg>